{
    "asset": {
        "version": "2.0",
        "generator": "Open Asset Import Library (assimp v5.0.5eb040c7)"
    },
    "accessors": [
        {
            "bufferView": 0,
            "byteOffset": 0,
            "componentType": 5126,
            "count": 7685,
            "type": "VEC3",
            "max": [
                5.797252655029297,
                11.585596084594727,
                15.833662986755371
            ],
            "min": [
                -5.797252655029297,
                -4.609189033508301,
                9.374208786994132e-8
            ]
        },
        {
            "bufferView": 1,
            "byteOffset": 0,
            "componentType": 5126,
            "count": 7685,
            "type": "VEC3",
            "max": [
                1.0,
                0.9999696016311646,
                0.9999972581863403
            ],
            "min": [
                -1.0,
                -0.9999967217445374,
                -1.0
            ]
        },
        {
            "bufferView": 2,
            "byteOffset": 0,
            "componentType": 5126,
            "count": 7685,
            "type": "VEC2",
            "max": [
                0.9837061762809753,
                0.9898960590362549
            ],
            "min": [
                0.015757447108626367,
                0.0182611346244812
            ]
        },
        {
            "bufferView": 3,
            "byteOffset": 0,
            "componentType": 5125,
            "count": 42180,
            "type": "SCALAR",
            "max": [
                7684
            ],
            "min": [
                0
            ]
        }
    ],
    "buffers": [
        {
            "byteLength": 414640,
            "uri": "result.bin"
        }
    ],
    "bufferViews": [
        {
            "buffer": 0,
            "byteOffset": 0,
            "byteLength": 92220,
            "target": 34962
        },
        {
            "buffer": 0,
            "byteOffset": 92220,
            "byteLength": 92220,
            "target": 34962
        },
        {
            "buffer": 0,
            "byteOffset": 184440,
            "byteLength": 61480,
            "target": 34962
        },
        {
            "buffer": 0,
            "byteOffset": 245920,
            "byteLength": 168720,
            "target": 34963
        }
    ],
    "images": [
        {
            "uri": "..\\..\\..\\..\\..\\Program Files\\Autodesk\\3ds Max 2018\\maps\\uvwunwrap\\UV_Checker.png"
        }
    ],
    "materials": [
        {
            "name": "Unwrap Texture Checker Material",
            "pbrMetallicRoughness": {
                "baseColorTexture": {
                    "index": 0
                },
                "baseColorFactor": [
                    0.5879999995231628,
                    0.5879999995231628,
                    0.5879999995231628,
                    1.0
                ],
                "metallicFactor": 0.0,
                "roughnessFactor": 0.959750771522522
            }
        }
    ],
    "meshes": [
        {
            "name": "PIKACHU",
            "primitives": [
                {
                    "mode": 4,
                    "material": 0,
                    "indices": 3,
                    "attributes": {
                        "POSITION": 0,
                        "NORMAL": 1,
                        "TEXCOORD_0": 2
                    }
                }
            ]
        }
    ],
    "nodes": [
        {
            "name": "RootNode",
            "children": [
                1
            ]
        },
        {
            "name": "PIKACHU_$AssimpFbx$_PreRotation",
            "matrix": [
                1.0,
                0.0,
                0.0,
                0.0,
                0.0,
                -4.371138828673793e-8,
                -1.0,
                0.0,
                0.0,
                1.0,
                -4.371138828673793e-8,
                0.0,
                0.0,
                0.0,
                0.0,
                1.0
            ],
            "children": [
                2
            ]
        },
        {
            "name": "PIKACHU",
            "mesh": 0
        }
    ],
    "samplers": [
        {}
    ],
    "scenes": [
        {
            "nodes": [
                0
            ]
        }
    ],
    "textures": [
        {
            "source": 0,
            "sampler": 0
        }
    ],
    "scene": 0
}